<?xml version="1.0"?>
<svg xmlns="http://www.w3.org/2000/svg" height="512px" viewBox="0 0 64 64" width="512px"><g><path d="m17 25h2v2h-2z" data-original="#000000" class="active-path" data-old_color="#000000" fill="#78D3DB"/><path d="m21 30h2v2h-2z" data-original="#000000" class="active-path" data-old_color="#000000" fill="#78D3DB"/><path d="m26 24h2v2h-2z" data-original="#000000" class="active-path" data-old_color="#000000" fill="#78D3DB"/><path d="m44 13h2v2h-2z" data-original="#000000" class="active-path" data-old_color="#000000" fill="#78D3DB"/><path d="m43 19h2v2h-2z" data-original="#000000" class="active-path" data-old_color="#000000" fill="#78D3DB"/><path d="m46 24h2v2h-2z" data-original="#000000" class="active-path" data-old_color="#000000" fill="#78D3DB"/><path d="m41 40h2v2h-2z" data-original="#000000" class="active-path" data-old_color="#000000" fill="#78D3DB"/><path d="m61 51.02v-.02q-.036 0-.072 0c-1.126-.253-3.37-.5-7.818-1a47.116 47.116 0 0 0 -8.49-.053c1.118-2.078 2.285-4.647 3.682-7.726 1.569-3.46 3.347-7.382 5.589-11.773a34.495 34.495 0 0 0 1.546-3.5 1 1 0 0 0 -.89-1.35 2.952 2.952 0 0 1 -.877-.167 2.511 2.511 0 0 1 -1.681-2 5.334 5.334 0 0 1 .278-2.8c.708-1.894 1.589-4.249-.836-7.607-1.8-2.488-1.4-3.556-.931-4.8a3.418 3.418 0 0 1 .7-1.224 1 1 0 0 0 -.057-1.455 13.794 13.794 0 0 0 -9.143-3.545 14.94 14.94 0 0 0 -8.609 3.207c-.889.681-1.491.787-2.286.33-.078-.047-.155-.094-.214-.132-.093-.062-.185-.124-.285-.2a14.935 14.935 0 0 0 -8.606-3.205c-8.271 0-15 7.626-15 17a24.7 24.7 0 0 0 2.761 10.728 1 1 0 0 0 1.177.522 7.511 7.511 0 0 1 2.062-.25c3.694 0 4 2.365 4 5 0 2.069 0 4.414 3.293 7.707a2.767 2.767 0 0 1 .914 2.455 3.578 3.578 0 0 1 -1.9 2.5 1 1 0 0 0 -.432 1.347c.059.115.116.22.175.332a65.687 65.687 0 0 0 -16.293 1.689 1 1 0 0 0 -.757.97v9a1 1 0 0 0 1 1h58a1 1 0 0 0 1-1v-8.756a.959.959 0 0 0 .032-.194c.028-.517.042-.779-1.032-1.03zm-37.817-5.548a4.786 4.786 0 0 0 -1.476-4.179c-2.707-2.707-2.707-4.369-2.707-6.293s0-7-6-7a10.7 10.7 0 0 0 -1.777.139 22.145 22.145 0 0 1 -2.223-9.139c0-8.271 5.832-15 13-15a12.888 12.888 0 0 1 7.386 2.789 6.059 6.059 0 0 0 .614.411c.038.023.077.045.116.067a14.572 14.572 0 0 0 7.42 1.852 21.391 21.391 0 0 0 6.785-1.173l-.632-1.9a17.4 17.4 0 0 1 -9.121.773c.014-.012.029-.019.043-.03a12.893 12.893 0 0 1 7.389-2.789 11.671 11.671 0 0 1 7.116 2.469 6.716 6.716 0 0 0 -.492 1.069c-.553 1.475-1.242 3.31 1.186 6.668 1.8 2.488 1.262 3.92.584 5.733a7.316 7.316 0 0 0 -.366 3.9 4.489 4.489 0 0 0 2.947 3.473c.049.018.1.035.148.051-.31.739-.649 1.47-1.014 2.185-2.262 4.432-4.05 8.376-5.629 11.855-1.654 3.65-2.983 6.571-4.257 8.734l-1.281.107c-1.609.136-3.237.268-4.883.357-.059-1.188-.059-2.687-.059-4.601 0-6.967-.654-11-4-11s-4 4.033-4 11c0 1.772 0 3.254-.053 4.436-.911-.1-1.826-.232-2.751-.416a35.474 35.474 0 0 0 -3.8-.538c-.107-.194-.212-.38-.321-.584a5.461 5.461 0 0 0 2.108-3.426zm10.877 5.2c-1.359.034-2.731.019-4.118-.066.058-1.213.058-2.706.058-4.606 0-7.931 1.011-9 2-9s2 1.069 2 9c0 1.927 0 3.444.06 4.677zm25.94 9.328h-56v-7.2c2.762-.6 12.551-2.466 20.8-.817 5.737 1.148 11.111.694 16.307.253a60.24 60.24 0 0 1 11.779-.239c4.244.472 6.2.714 7.11.838z" data-original="#000000" class="active-path" data-old_color="#000000" fill="#78D3DB"/><path d="m6.684 55.052.632 1.9c.058-.018 5.8-1.905 10.488-.968l.392-1.96c-5.196-1.046-11.257.942-11.512 1.028z" data-original="#000000" class="active-path" data-old_color="#000000" fill="#78D3DB"/><path d="m45.858 54.01.284 1.98c.067-.009 6.733-.934 10.411.905l.894-1.79c-4.231-2.115-11.29-1.137-11.589-1.095z" data-original="#000000" class="active-path" data-old_color="#000000" fill="#78D3DB"/><path d="m42 56h2v2h-2z" data-original="#000000" class="active-path" data-old_color="#000000" fill="#78D3DB"/><path d="m30 56h2v2h-2z" data-original="#000000" class="active-path" data-old_color="#000000" fill="#78D3DB"/><path d="m28.213 10.366c-.483-2.634-4.17-5.05-8.378-4.352a1.082 1.082 0 0 0 -.11.024 12.82 12.82 0 0 0 -8.711 10.8c-.091.543-.461 3.3 1.161 4.253a2.089 2.089 0 0 0 1.079.284 6.224 6.224 0 0 0 3.371-1.592 39.4 39.4 0 0 0 3.526-3.183c1.5-1.5 2.009-2.008 5.045-2.616 2.62-.527 3.262-2.278 3.017-3.618zm-9.476 4.816a37 37 0 0 1 -3.362 3.037c-1.647 1.319-2.183 1.152-2.188 1.145a3.443 3.443 0 0 1 -.195-2.24 10.863 10.863 0 0 1 7.234-9.147c3.227-.509 5.756 1.309 6.02 2.75.118.642-.368 1.078-1.442 1.293-3.491.698-4.334 1.429-6.067 3.162z" data-original="#000000" class="active-path" data-old_color="#000000" fill="#78D3DB"/><path d="m35.372 20.929a4.906 4.906 0 0 0 2.9-2.791 5.765 5.765 0 0 0 -.372-4.585 4.469 4.469 0 0 0 -3.13-2.6 3.932 3.932 0 0 0 -3.472 1.341 17.466 17.466 0 0 1 -5.64 3.769c-2.235.827-3.3 1.653-3.471 2.677a1.739 1.739 0 0 0 .729 1.678c1.138.911 3.87 1.4 6.656 1.4a16.744 16.744 0 0 0 5.8-.889zm-11.081-1.963a7.093 7.093 0 0 1 2.056-1.028 19.354 19.354 0 0 0 6.36-4.231 2.048 2.048 0 0 1 1.738-.78 2.569 2.569 0 0 1 1.66 1.52 3.823 3.823 0 0 1 .292 2.98 2.916 2.916 0 0 1 -1.769 1.644c-3.202 1.283-9.066.729-10.337-.105z" data-original="#000000" class="active-path" data-old_color="#000000" fill="#78D3DB"/><path d="m35.03 31.758a3.294 3.294 0 0 0 .3 2.931c.763.978 2.089.978 3.26.978a5.008 5.008 0 0 1 1.96.228 8.7 8.7 0 0 0 3.697 1.105 2.861 2.861 0 0 0 1.537-.4 2.812 2.812 0 0 0 1.216-2.6c0-2.437-1.158-2.828-2.449-3.04a3.8 3.8 0 0 1 -1.936-.748c-.29-.228-2.907-2.2-5.227-1.4a3.778 3.778 0 0 0 -2.358 2.946zm3.009-1.05a1.588 1.588 0 0 1 .523-.081 5.413 5.413 0 0 1 2.823 1.161 5.7 5.7 0 0 0 2.843 1.146 2.65 2.65 0 0 1 .64.148s.132.161.132.918c0 .275-.035.759-.267.9-.348.218-1.421.136-3.286-.8a6.4 6.4 0 0 0 -2.854-.438c-.57 0-1.522 0-1.684-.208-.007-.01-.181-.247.061-1.217.32-1.271.884-1.466 1.069-1.529z" data-original="#000000" class="active-path" data-old_color="#000000" fill="#78D3DB"/></g> </svg>
