<?xml version="1.0"?>
<svg xmlns="http://www.w3.org/2000/svg" viewBox="0 0 64 64" width="512px" height="512px"><g><g id="outline"><path d="M59,31h-.819c.21-.5.439-1.015.71-1.545A9.493,9.493,0,0,0,60,25c0-4.056-2.523-7-6-7a5.957,5.957,0,0,0-3.607,1.206.76.76,0,0,1-.786,0A5.957,5.957,0,0,0,46,18a5.658,5.658,0,0,0-5,2.974A5.658,5.658,0,0,0,36,18a5.957,5.957,0,0,0-3.607,1.206.76.76,0,0,1-.786,0A5.957,5.957,0,0,0,28,18a5.658,5.658,0,0,0-5,2.974A5.658,5.658,0,0,0,18,18a5.957,5.957,0,0,0-3.607,1.206.76.76,0,0,1-.786,0A5.957,5.957,0,0,0,10,18c-3.477,0-6,2.944-6,7a9.493,9.493,0,0,0,1.109,4.455c.271.53.5,1.043.71,1.545H5a3,3,0,0,0-3,3V44a1,1,0,0,0,1,1H61a1,1,0,0,0,1-1V34A3,3,0,0,0,59,31ZM46,20a4.018,4.018,0,0,1,2.393.794,2.754,2.754,0,0,0,3.214,0A4.018,4.018,0,0,1,54,20c2.355,0,4,2.056,4,5,0,.082-.011.16-.014.241A9.729,9.729,0,0,1,54,25.222V24a1,1,0,0,0-1-1H47a1,1,0,0,0-1,1v1.252a17.187,17.187,0,0,1-3.95.61A7.592,7.592,0,0,1,42,25C42,22.056,43.645,20,46,20Zm3.88,11h0a2.545,2.545,0,0,0-1.921.682A4.507,4.507,0,0,0,47,35c0,1.97-.5,3-.97,3.02a7.465,7.465,0,0,1-.689-2.246,28.638,28.638,0,0,0-2.45-7.229c-.121-.237-.219-.467-.314-.7A19.458,19.458,0,0,0,46,27.319V28a1,1,0,0,0,1,1h6a1,1,0,0,0,1-1v-.742a12.3,12.3,0,0,0,2.109.186,10.967,10.967,0,0,0,1.5-.1,8.675,8.675,0,0,1-.5,1.2,28.638,28.638,0,0,0-2.45,7.229A8.282,8.282,0,0,1,54,38c-.5,0-1-1.03-1-3a4.507,4.507,0,0,0-.959-3.318A2.559,2.559,0,0,0,50.12,31h-.24ZM48,27V25h4v2Zm-7.109,2.455c.042-.083.069-.163.109-.245.04.082.067.162.109.245.271.53.5,1.043.71,1.545H40.181C40.391,30.5,40.62,29.985,40.891,29.455ZM28,20a4.018,4.018,0,0,1,2.393.794,2.754,2.754,0,0,0,3.214,0A4.018,4.018,0,0,1,36,20c2.355,0,4,2.056,4,5a7.485,7.485,0,0,1-.049.842,21.989,21.989,0,0,1-3.951-.6V24a1,1,0,0,0-1-1H29a1,1,0,0,0-1,1v1.252a17.187,17.187,0,0,1-3.95.61A7.592,7.592,0,0,1,24,25C24,22.056,25.645,20,28,20Zm3.88,11h0a2.551,2.551,0,0,0-1.921.682A4.507,4.507,0,0,0,29,35c0,1.97-.5,3-.97,3.02a7.465,7.465,0,0,1-.689-2.246,28.638,28.638,0,0,0-2.45-7.229c-.121-.237-.219-.467-.314-.7A19.458,19.458,0,0,0,28,27.319V28a1,1,0,0,0,1,1h6a1,1,0,0,0,1-1v-.7a23.664,23.664,0,0,0,3.434.519c-.1.239-.2.478-.325.723a28.638,28.638,0,0,0-2.45,7.229A8.282,8.282,0,0,1,36,38c-.5,0-1-1.03-1-3a4.507,4.507,0,0,0-.959-3.318A2.555,2.555,0,0,0,32.12,31h-.24ZM30,27V25h4v2Zm-7.109,2.455c.042-.083.069-.163.109-.245.04.082.067.162.109.245.271.53.5,1.043.71,1.545H22.181C22.391,30.5,22.62,29.985,22.891,29.455ZM10,20a4.018,4.018,0,0,1,2.393.794,2.754,2.754,0,0,0,3.214,0A4.018,4.018,0,0,1,18,20c2.355,0,4,2.056,4,5a7.485,7.485,0,0,1-.049.842,21.989,21.989,0,0,1-3.951-.6V24a1,1,0,0,0-1-1H11a1,1,0,0,0-1,1v1.238a9.722,9.722,0,0,1-3.987-.013C6.011,25.149,6,25.077,6,25,6,22.056,7.645,20,10,20Zm3.88,11h0a2.545,2.545,0,0,0-1.921.682A4.507,4.507,0,0,0,11,35c0,1.97-.5,3-.97,3.02a7.465,7.465,0,0,1-.689-2.246,28.638,28.638,0,0,0-2.45-7.229,8.669,8.669,0,0,1-.507-1.227,12.111,12.111,0,0,0,1.725.126A10.87,10.87,0,0,0,10,27.273V28a1,1,0,0,0,1,1h6a1,1,0,0,0,1-1v-.7a23.664,23.664,0,0,0,3.434.519c-.1.239-.2.478-.325.723a28.638,28.638,0,0,0-2.45,7.229A8.282,8.282,0,0,1,18,38c-.5,0-1-1.03-1-3a4.507,4.507,0,0,0-.959-3.318A2.56,2.56,0,0,0,14.12,31h-.24ZM12,27V25h4v2ZM60,43H4V34a1,1,0,0,1,1-1H6.554c.385,1.215.632,2.3.835,3.211C7.844,38.244,8.237,40,10,40c.7,0,3-.36,3-5,0-1.421.285-1.815.372-1.9s.234-.088.57-.1h.116c.337.009.481.009.57.1S15,33.579,15,35c0,4.64,2.3,5,3,5,1.763,0,2.156-1.756,2.611-3.789.2-.908.45-2,.835-3.211h3.108c.385,1.215.632,2.3.835,3.211C25.844,38.244,26.237,40,28,40c.7,0,3-.36,3-5,0-1.421.285-1.815.372-1.9s.236-.088.57-.1h.116c.338.009.481.009.57.1S33,33.579,33,35c0,4.64,2.3,5,3,5,1.763,0,2.156-1.756,2.611-3.789.2-.908.45-2,.835-3.211h3.108c.385,1.215.632,2.3.835,3.211C43.844,38.244,44.237,40,46,40c.7,0,3-.36,3-5,0-1.421.285-1.815.372-1.9s.238-.088.57-.1h.116c.339.009.481.009.57.1S51,33.579,51,35c0,4.64,2.3,5,3,5,1.763,0,2.156-1.756,2.611-3.789.2-.908.45-2,.835-3.211H59a1,1,0,0,1,1,1Z" data-original="#000000" class="active-path" data-old_color="#000000" fill="#78D3DB"/></g></g> </svg>
