<?xml version="1.0"?>
<svg xmlns="http://www.w3.org/2000/svg" height="512px" viewBox="-23 0 511 511.99998" width="512px" class=""><g><path d="m365.011719 85.578125c-26.285157-11.363281-58.339844-8.164063-84.703125 1.546875-1.046875.386719-2.097656.761719-3.160156 1.128906-35.113282 12.121094-73.445313 12.121094-108.558594 0-1.0625-.367187-2.113282-.742187-3.160156-1.128906-26.363282-9.710938-58.417969-12.910156-84.703126-1.546875-62.472656 27-80.695312 109.683594-69.730468 170.816406 6.242187 34.808594 20.421875 67.539063 37.203125 98.46875 20.417969 37.617188 42.148437 70.90625 52.304687 113.164063 2.574219 10.710937 4.851563 24.828125 14.988282 31.207031 10.417968 6.558594 26.191406 7.238281 36.386718.3125 18.984375-12.902344 19.769532-43.691406 19.769532-64.195313 0-11.734374 1.222656-23.484374 4.335937-34.832031 2.6875-9.804687 6.648437-19.578125 12.90625-27.679687 2.078125-2.691406 4.777344-5.132813 7.867187-7.296875 15.59375-10.925781 36.628907-10.925781 52.222657 0 3.089843 2.164062 5.789062 4.605469 7.867187 7.296875 6.257813 8.101562 10.214844 17.875 12.90625 27.679687 3.113282 11.347657 4.335938 23.09375 4.335938 34.832031 0 20.503907.789062 51.292969 19.769531 64.195313 10.195313 6.925781 25.96875 6.246094 36.386719-.3125 10.136718-6.378906 12.414062-20.496094 14.988281-31.207031 10.15625-42.257813 31.886719-75.546875 52.300781-113.164063 16.785156-30.929687 30.960938-63.660156 37.207032-98.46875 10.964843-61.132812-7.257813-143.816406-69.730469-170.816406zm0 0" fill="#ededed" data-original="#EDEDED" class="active-path" data-old_color="#ededed" style="fill:#FFFFFF"/><path d="m434.738281 256.390625c-6.242187 34.808594-20.414062 67.539063-37.199219 98.46875-20.417968 37.621094-42.144531 70.914063-52.308593 113.167969-2.570313 10.710937-4.851563 24.824218-14.984375 31.207031-9.871094 6.210937-24.566406 7.144531-34.75 1.332031.8125-.410156 1.589844-.851562 2.351562-1.332031 10.144532-6.382813 12.414063-20.496094 14.992188-31.207031 10.15625-42.253906 31.882812-75.546875 52.296875-113.167969 16.785156-30.929687 30.960937-63.660156 37.210937-98.46875 10.964844-61.128906-7.261718-143.816406-69.738281-170.8125-6.914063-2.992187-14.226563-4.972656-21.726563-6.082031 18.402344-2.480469 37.429688-1.140625 54.125 6.082031 62.480469 26.996094 80.695313 109.683594 69.730469 170.8125zm0 0" fill="#d6d4d4" data-original="#D6D4D4" class="" data-old_color="#d6d4d4" style="fill:#78D3DB"/><path d="m305.496094 59.03125c14.085937-2.714844 30.386718-9.003906 45.753906-8.714844 16.984375.320313 30.109375 12.011719 46.289062 12.785156 20.511719.984376 42.347657 14.609376 44.222657 35.054688.898437 9.785156-2.820313 19.386719-3.445313 29.195312-.90625 14.144532 4.621094 27.832032 6.761719 41.84375 2.140625 14.011719-.429687 30.707032-12.570313 38.027344-12.609374 7.605469-29.714843.988282-39.316406-10.183594-9.597656-11.167968-13.929687-25.761718-19.671875-39.324218-5.742187-13.5625-14.089843-27.351563-27.734375-32.894532-12.015625-4.882812-25.550781-2.375-38.503906-1.722656-19.414062.972656-45.75 1.617188-59.179688-15.265625-16.9375-21.289062 2.101563-47.992187 27.332032-48.40625 6.210937-.101562 12.386718 1.222657 18.589844.984375 3.882812-.144531 7.699218-.648437 11.472656-1.378906zm0 0" fill="#ffc143" data-original="#FFC143" class="" data-old_color="#ffc143" style="fill:#78D3DB"/><path d="m432.507812 207.226562c-4.800781 2.890626-10.253906 3.730469-15.695312 3.019532 10.863281-7.742188 13.136719-23.628906 11.085938-37.050782-2.140626-14.015624-7.664063-27.699218-6.761719-41.84375.628906-9.804687 4.351562-19.40625 3.449219-29.1875-1.878907-20.449218-23.71875-34.070312-44.222657-35.0625-16.1875-.769531-29.308593-12.464843-46.296875-12.785156-4.71875-.089844-9.53125.441406-14.34375 1.3125 10.285156-2.691406 21.117188-5.511718 31.53125-5.3125 16.984375.320313 30.109375 12.015625 46.285156 12.785156 20.503907.988282 42.34375 14.601563 44.222657 35.050782.898437 9.792968-2.820313 19.394531-3.453125 29.199218-.898438 14.144532 4.632812 27.828126 6.773437 41.839844 2.140625 14.015625-.429687 30.710938-12.574219 38.035156zm0 0" fill="#ffb509" data-original="#FFB509" class="" data-old_color="#ffb509" style="fill:#78D3DB"/><path d="m319.722656 55.628906c-4.898437 1.28125-9.683594 2.519532-14.222656 3.398438-.710938.140625-1.410156.261718-2.121094.382812 5.351563-1.402344 10.851563-2.800781 16.34375-3.78125zm0 0" fill="#ffb509" data-original="#FFB509" class="" data-old_color="#ffb509" style="fill:#78D3DB"/><path d="m267.601562 375.410156c-1.484374-2.53125-3.105468-4.941406-4.816406-7.15625-2.457031-3.183594-5.652344-6.164062-9.496094-8.855468-18.195312-12.742188-42.644531-12.746094-60.835937 0-3.839844 2.6875-7.035156 5.667968-9.5 8.855468-6.148437 7.960938-10.796875 17.867188-14.203125 30.277344-3.097656 11.289062-4.601562 23.332031-4.601562 36.820312 0 16.351563 0 46.785157-16.484376 57.988282-7.277343 4.945312-19.917968 4.742187-28.171874-.453125-6.5-4.089844-8.835938-14.25-10.898438-23.214844-.269531-1.160156-.53125-2.296875-.796875-3.398437-8.527344-35.492188-24.65625-64.242188-41.730469-94.679688-3.707031-6.605469-7.539062-13.4375-11.269531-20.308594-19.523437-35.972656-31.09375-66.542968-36.414063-96.214844-5.574218-31.066406-3.011718-65.484374 7.027344-94.421874 8.007813-23.070313 24.617188-53.628907 58.296875-68.183594 18.085938-7.820313 41.332031-8.726563 65.460938-2.554688 4.015625 1.027344 8.101562-1.394531 9.125-5.40625 1.027343-4.015625-1.394531-8.101562-5.40625-9.128906-27.332031-6.992188-54.015625-5.816406-75.132813 3.316406-30.621094 13.234375-53.625 39.875-66.515625 77.035156-10.859375 31.296876-13.636719 68.46875-7.625 101.992188 5.613281 31.296875 17.6875 63.300781 37.996094 100.722656 3.777344 6.964844 7.636719 13.839844 11.367187 20.492188 16.554688 29.503906 32.1875 57.371094 40.234376 90.84375.25 1.058594.503906 2.144531.757812 3.257812 2.582031 11.210938 5.789062 25.160156 17.527344 32.550782 6.792968 4.273437 14.917968 6.414062 22.890625 6.414062 7.863281 0 15.574219-2.082031 21.707031-6.25 23.058594-15.667969 23.058594-51.273438 23.058594-70.398438 0-12.128906 1.328125-22.871093 4.066406-32.847656 2.878906-10.492187 6.675781-18.695312 11.609375-25.078125 1.535156-1.988281 3.632813-3.917969 6.230469-5.738281 13.046875-9.136719 30.574218-9.136719 43.621094 0 2.601562 1.820312 4.699218 3.753906 6.230468 5.734375 1.320313 1.710937 2.578125 3.585937 3.742188 5.574219 2.09375 3.574218 6.6875 4.773437 10.265625 2.679687 3.574219-2.09375 4.777343-6.6875 2.683593-10.265625zm0 0" data-original="#000000" class="" data-old_color="#000000" style="fill:#78D3DB"/><path d="m452.496094 168.0625c-.789063-5.160156-1.992188-10.199219-3.152344-15.078125-2.089844-8.757813-4.0625-17.03125-3.542969-25.15625.222657-3.472656.910157-7.042969 1.636719-10.824219 1.195312-6.207031 2.429688-12.625 1.796875-19.535156-2.273437-24.765625-27.886719-40.734375-51.332031-41.859375-6.539063-.3125-12.90625-2.9375-19.644532-5.71875-8.207031-3.382813-16.695312-6.882813-26.863281-7.074219-11.472656-.222656-22.746093 2.726563-33.652343 5.574219-4.824219 1.257813-9.386719 2.449219-13.667969 3.277344-3.71875.714843-7.101563 1.125-10.335938 1.246093-2.746093.105469-5.652343-.164062-8.726562-.453124-3.109375-.289063-6.324219-.589844-9.699219-.535157-16.28125.265625-31.105469 9.554688-37.765625 23.660157-2.140625 4.53125-3.253906 9.207031-3.390625 13.859374-15.855469 1.128907-31.867188-.117187-47.53125-3.78125l-.757812-.183593c-4.027344-.957031-8.074219 1.539062-9.03125 5.570312-.957032 4.03125 1.535156 8.074219 5.566406 9.03125l.777344.183594c17.796874 4.167969 36 5.46875 53.988281 3.980469 1.285156 2.855468 2.964843 5.625 5.0625 8.257812 16.351562 20.550782 47.074219 19.007813 65.425781 18.085938 2.6875-.132813 5.390625-.34375 8.007812-.550782 9.9375-.773437 19.320313-1.507812 27.296876 1.734376 9.289062 3.773437 17.023437 13.214843 23.648437 28.863281 1.199219 2.835937 2.371094 5.808593 3.507813 8.6875 4.4375 11.25 9.027343 22.878906 17.382812 32.605469 7.867188 9.152343 20.414062 16.089843 32.914062 16.089843 3.273438 0 6.542969-.488281 9.726563-1.527343.359375 13.019531-.539063 26.066406-2.785156 38.578124-5.320313 29.667969-16.890625 60.238282-36.414063 96.210938-3.730468 6.875-7.5625 13.707031-11.265625 20.3125-17.078125 30.4375-33.207031 59.183594-41.734375 94.679688-.265625 1.101562-.527344 2.238281-.796875 3.398437-2.0625 8.964844-4.398437 19.125-10.898437 23.214844-8.253906 5.195312-20.894532 5.398437-28.167969.453125-16.484375-11.203125-16.484375-41.636719-16.484375-57.988282 0-8.523437-.636719-16.703124-1.882812-24.304687-.671876-4.085937-4.523438-6.855469-8.617188-6.1875-4.089844.671875-6.859375 4.527344-6.191406 8.617187 1.117187 6.800782 1.683594 14.164063 1.683594 21.875 0 19.128907 0 54.730469 23.058593 70.398438 6.132813 4.167969 13.84375 6.25 21.707031 6.25 7.96875 0 16.097657-2.140625 22.890626-6.414062 11.734374-7.386719 14.945312-21.339844 17.527343-32.550782.253907-1.109375.507813-2.199218.757813-3.257812 8.046875-33.472656 23.679687-61.339844 40.234375-90.84375 3.730469-6.652344 7.589843-13.527344 11.367187-20.492188 20.3125-37.425781 32.382813-69.429687 37.996094-100.722656 2.980469-16.613281 3.773438-34.117188 2.515625-51.363281 8.328125-10.507813 9.765625-25.777344 7.855469-38.292969zm-23.859375 32.734375c-7.066407 4.265625-20.457031 2.171875-29.753907-8.648437-6.707031-7.804688-10.644531-17.777344-14.808593-28.332032-1.164063-2.960937-2.375-6.023437-3.644531-9.027344-8.253907-19.496093-18.660157-31.570312-31.820313-36.917968-6.707031-2.726563-13.539063-3.503906-20.34375-3.503906-4.621094 0-9.226563.355468-13.769531.710937-2.628906.207031-5.113282.402344-7.59375.523437-20.023438 1.011719-42.269532.957032-52.933594-12.441406-5.199219-6.539062-6.214844-14.054687-2.855469-21.167968 4.175781-8.839844 14-14.894532 24.445313-15.066407 2.5625-.035156 5.226562.207031 8.058594.472657 3.421874.320312 6.960937.652343 10.691406.507812 4.003906-.152344 8.128906-.644531 12.609375-1.507812h-.003907c4.761719-.917969 9.550782-2.167969 14.621094-3.492188 9.917969-2.589844 20.21875-5.269531 29.574219-5.089844 7.34375.136719 14.183594 2.957032 21.425781 5.945313 7.625 3.144531 15.511719 6.394531 24.644532 6.835937 16.675781.796875 35.605468 11.824219 37.113281 28.242188.4375 4.789062-.546875 9.910156-1.589844 15.328125-.78125 4.074219-1.59375 8.285156-1.875 12.703125-.664063 10.371094 1.664063 20.144531 3.917969 29.59375 1.144531 4.789062 2.222656 9.316406 2.917968 13.859375 1.613282 10.574219.21875 24.898437-9.027343 30.472656zm0 0" data-original="#000000" class="" data-old_color="#000000" style="fill:#78D3DB"/><path d="m369.09375 26.078125c.789062 3.480469 3.882812 5.84375 7.308594 5.84375.550781 0 1.109375-.0625 1.667968-.1875 4.039063-.917969 6.574219-4.9375 5.65625-8.976563l-3.835937-16.914062c-.917969-4.039062-4.941406-6.574219-8.976563-5.65625-4.042968.917969-6.574218 4.9375-5.65625 8.976562zm0 0" data-original="#000000" class="" data-old_color="#000000" style="fill:#78D3DB"/><path d="m410.089844 34.019531c.816406.285157 1.648437.421875 2.46875.421875 3.101562 0 6.003906-1.941406 7.085937-5.035156l5.707031-16.378906c1.363282-3.910156-.703124-8.1875-4.613281-9.550782-3.914062-1.363281-8.191406.699219-9.554687 4.613282l-5.710938 16.375c-1.363281 3.914062.703125 8.191406 4.617188 9.554687zm0 0" data-original="#000000" class="" data-old_color="#000000" style="fill:#78D3DB"/><path d="m464.335938 28.59375c-2.316407-3.4375-6.980469-4.34375-10.414063-2.03125l-14.382813 9.691406c-3.4375 2.3125-4.347656 6.976563-2.03125 10.414063 1.449219 2.148437 3.816407 3.3125 6.230469 3.3125 1.441407 0 2.898438-.417969 4.183594-1.28125l14.382813-9.691407c3.4375-2.316406 4.34375-6.976562 2.03125-10.414062zm0 0" data-original="#000000" class="" data-old_color="#000000" style="fill:#78D3DB"/></g> </svg>
